<svg xmlns="http://www.w3.org/2000/svg" width="16.871" height="16.39" viewBox="0 0 16.871 16.39">
  <g id="noun_order_2046089" transform="translate(-37.811 -51.424)">
    <g id="Group_3679" data-name="Group 3679" transform="translate(37.811 51.424)">
      <g id="Group_3670" data-name="Group 3670" transform="translate(0 2.977)">
        <g id="Group_3669" data-name="Group 3669">
          <path id="Path_11870" data-name="Path 11870" d="M46.693,230.555l-.752-.331-1.805-.8-2.173-.959q-.944-.416-1.887-.831c-.3-.133-.608-.274-.914-.4l-.012-.005c.148.256.293.512.441.768v-7.285c0-.338.005-.676,0-1.012v-.014l-1.337.768.752.331,1.805.8,2.173.959q.944.416,1.887.831c.3.133.608.274.914.4l.012.005c-.148-.256-.293-.512-.441-.768V230.3c0,.338,0,.676,0,1.012v.014a.926.926,0,0,0,.26.63.893.893,0,0,0,1.259,0,.922.922,0,0,0,.26-.63v-7.285c0-.338,0-.676,0-1.012v-.014a.886.886,0,0,0-.439-.767l-.752-.331-1.805-.8-2.173-.959q-.944-.416-1.887-.831l-.914-.4-.012-.005a.891.891,0,0,0-.9,0,.9.9,0,0,0-.441.768v7.285c0,.338,0,.676,0,1.012V228a.886.886,0,0,0,.439.767L39,229.1l1.805.8,2.173.959q.944.416,1.887.831l.914.4.012.005a.649.649,0,0,0,.331.1.666.666,0,0,0,.354-.016.909.909,0,0,0,.532-.409.9.9,0,0,0,.089-.685A.853.853,0,0,0,46.693,230.555Z" transform="translate(-37.811 -218.8)" fill="#858585"/>
        </g>
      </g>
      <g id="Group_3672" data-name="Group 3672" transform="translate(7.545 2.975)">
        <g id="Group_3671" data-name="Group 3671">
          <path id="Path_11871" data-name="Path 11871" d="M470,227.132l-.752.331-1.805.8-2.173.959q-.944.416-1.887.831c-.3.135-.612.265-.914.4l-.012.005,1.338.768V223.94c0-.338.005-.676,0-1.012v-.014c-.148.256-.293.512-.441.768l.752-.331,1.805-.8,2.173-.959q.944-.416,1.887-.831c.3-.135.612-.265.914-.4l.012-.005-1.337-.768v7.285c0,.338,0,.676,0,1.012v.014a.926.926,0,0,0,.26.63.893.893,0,0,0,1.259,0,.923.923,0,0,0,.26-.63v-7.285c0-.338,0-.676,0-1.012v-.014a.9.9,0,0,0-.441-.768.891.891,0,0,0-.9,0l-.752.331-1.805.8-2.173.959q-.944.416-1.887.831c-.3.133-.614.261-.914.4l-.012.005a.886.886,0,0,0-.439.767V230.2c0,.338,0,.676,0,1.012v.014a.9.9,0,0,0,.441.768.891.891,0,0,0,.9,0l.752-.331,1.805-.8,2.173-.959q.944-.416,1.887-.831c.3-.133.614-.261.914-.4l.012-.005a.892.892,0,0,0,.409-.532.91.91,0,0,0-.089-.685.9.9,0,0,0-.532-.409l-.237-.032A.9.9,0,0,0,470,227.132Z" transform="translate(-462.011 -218.7)" fill="#858585"/>
        </g>
      </g>
      <g id="Group_3674" data-name="Group 3674" transform="translate(0.011 0)">
        <g id="Group_3673" data-name="Group 3673">
          <path id="Path_11872" data-name="Path 11872" d="M53.937,54.52l-.752.331-1.805.8-2.173.959q-.944.416-1.887.831c-.3.135-.612.265-.914.4l-.012.005h.9l-.752-.331-1.805-.8-2.173-.959q-.944-.416-1.887-.831c-.3-.133-.608-.274-.914-.4l-.012-.005c-.071.542-.142,1.083-.212,1.626l.752-.3q.9-.355,1.8-.711l2.177-.859q.944-.374,1.889-.745c.3-.121.612-.233.914-.361l.012-.005h-.473l.752.3q.9.355,1.8.711l2.177.859q.944.374,1.889.745c.3.121.606.249.914.361l.012.005a.9.9,0,0,0,.685-.089.89.89,0,0,0,.32-1.217l-.139-.18a.889.889,0,0,0-.393-.229l-.752-.3-1.807-.713-2.184-.863L48,51.815c-.3-.119-.6-.247-.905-.357a.724.724,0,0,0-.365-.02c-.133.018-.08,0-.13.021l-.1.041c-.157.062-.313.125-.47.185l-1.7.672-2.173.859-1.962.775-1.071.423-.05.02a1.1,1.1,0,0,0-.393.229.885.885,0,0,0-.245.51.852.852,0,0,0,.06.461.808.808,0,0,0,.365.425l.756.333,1.814.8q1.091.48,2.182.962l1.88.829.9.4.009,0h0l.212.089a.666.666,0,0,0,.354.016.817.817,0,0,0,.333-.107l.009,0,.1-.043.468-.206,1.7-.751,2.172-.957,1.969-.868c.359-.158.717-.317,1.076-.473l.05-.021a.892.892,0,0,0,.409-.532.91.91,0,0,0-.089-.685.9.9,0,0,0-.532-.409L54.39,54.4A.851.851,0,0,0,53.937,54.52Z" transform="translate(-38.417 -51.424)" fill="#858585"/>
        </g>
      </g>
      <g id="Group_3676" data-name="Group 3676" transform="translate(11.497 4.54)">
        <g id="Group_3675" data-name="Group 3675" transform="translate(0)">
          <path id="Path_11873" data-name="Path 11873" d="M684.2,307.552v2.318a.926.926,0,0,0,.26.63.893.893,0,0,0,1.259,0,.922.922,0,0,0,.26-.63v-2.318a.926.926,0,0,0-.26-.63.893.893,0,0,0-1.259,0,.93.93,0,0,0-.26.63Z" transform="translate(-684.2 -306.662)" fill="#858585"/>
        </g>
      </g>
      <g id="Group_3678" data-name="Group 3678" transform="translate(3.955 1.43)">
        <g id="Group_3677" data-name="Group 3677">
          <path id="Path_11874" data-name="Path 11874" d="M260.827,133.6l.751.309,1.8.742,2.181.9q.942.387,1.885.775c.3.126.608.26.916.377l.012.005a.888.888,0,0,0,.685-.089.89.89,0,0,0,.32-1.217l-.139-.18a.889.889,0,0,0-.393-.229l-.751-.309-1.8-.742-2.181-.9q-.942-.387-1.885-.775c-.3-.126-.608-.26-.916-.377l-.012-.005a.888.888,0,0,0-.685.089.89.89,0,0,0-.32,1.217l.139.18a.866.866,0,0,0,.393.229Z" transform="translate(-260.178 -131.853)" fill="#858585"/>
        </g>
      </g>
    </g>
  </g>
</svg>
