<svg xmlns="http://www.w3.org/2000/svg" width="16.525" height="16.525" viewBox="0 0 16.525 16.525">
  <g id="noun_window_3401932" transform="translate(-4.94 -4.94)">
    <g id="Group_3718" data-name="Group 3718" transform="translate(4.94 4.94)">
      <path id="Path_11893" data-name="Path 11893" d="M20.432,4.94H5.972A1.032,1.032,0,0,0,4.94,5.972V20.43a1.032,1.032,0,0,0,1.032,1.034h14.46a1.032,1.032,0,0,0,1.032-1.034V5.972A1.032,1.032,0,0,0,20.432,4.94ZM9.588,5.972a.515.515,0,1,1-.366.151A.517.517,0,0,1,9.588,5.972Zm-1.549,0a.515.515,0,1,1-.369.15A.517.517,0,0,1,8.039,5.972Zm-1.549,0a.515.515,0,1,1-.366.151A.517.517,0,0,1,6.489,5.972ZM10.1,19.908a.515.515,0,0,1-.515.515h-3.1a.515.515,0,0,1-.517-.515V11.653a.517.517,0,0,1,.517-.517h3.1a.515.515,0,0,1,.515.517Zm10.329,0a.515.515,0,0,1-.517.515H11.653a.517.517,0,0,1-.517-.515V11.653a.517.517,0,0,1,.517-.517h8.262a.517.517,0,0,1,.517.517Zm0-10.329a.517.517,0,0,1-.517.517H6.489a.517.517,0,0,1-.517-.517V8.554a.517.517,0,0,1,.517-.517H19.915a.517.517,0,0,1,.517.517Z" transform="translate(-4.94 -4.94)" fill="#858585"/>
    </g>
  </g>
</svg>
