<svg xmlns="http://www.w3.org/2000/svg" width="15.41" height="16.044" viewBox="0 0 15.41 16.044">
  <g id="noun_product_3407444" transform="translate(-43.533 -62.143)">
    <g id="Group_3651" data-name="Group 3651" transform="translate(43.533 62.143)">
      <path id="Path_11855" data-name="Path 11855" d="M55.855,21.673V18.635a.18.18,0,0,0-.27-.152l-2.7,1.57a.177.177,0,0,0-.084.152v3.038a.18.18,0,0,0,.27.152l2.7-1.57A.2.2,0,0,0,55.855,21.673Z" transform="translate(-44.625 -15.757)" fill="#858585"/>
      <path id="Path_11856" data-name="Path 11856" d="M38.651,4.045l-2.7-1.57a.182.182,0,0,0-.186,0l-2.7,1.57a.175.175,0,0,0,0,.3l2.7,1.57a.182.182,0,0,0,.186,0l2.7-1.57A.175.175,0,0,0,38.651,4.045Z" transform="translate(-28.147 -2.45)" fill="#858585"/>
      <path id="Path_11857" data-name="Path 11857" d="M32.071,19.953l-2.7-1.57a.18.18,0,0,0-.27.152v3.038a.177.177,0,0,0,.084.152l2.7,1.57a.18.18,0,0,0,.27-.152V20.1A.2.2,0,0,0,32.071,19.953Z" transform="translate(-24.926 -15.674)" fill="#858585"/>
      <path id="Path_11858" data-name="Path 11858" d="M8.358,30.344a.536.536,0,0,0-.895.388v.625a.516.516,0,0,0,.118.338l1.4,1.722a.562.562,0,0,1,0,.726.513.513,0,0,1-.388.169.56.56,0,0,1-.422-.2L6.637,32.218a1.06,1.06,0,0,1-.236-.675v-4.22a.728.728,0,0,0-.709-.726h0a.852.852,0,0,0-.878.776l-.439,4.979A1.828,1.828,0,0,0,4.746,33.6L7.5,37.1a.455.455,0,0,1,.084.253v.81a.411.411,0,0,0,.405.405h2.87a.411.411,0,0,0,.405-.405V34.412a3.173,3.173,0,0,0-1.047-2.363Z" transform="translate(-4.37 -22.521)" fill="#858585"/>
      <path id="Path_11859" data-name="Path 11859" d="M61.6,32.353l-.439-4.979a.841.841,0,0,0-.878-.776.739.739,0,0,0-.709.726v4.22a1.1,1.1,0,0,1-.236.675l-1.536,1.891a.536.536,0,0,1-.81.034.542.542,0,0,1,0-.726l1.4-1.722a.516.516,0,0,0,.118-.338v-.625a.512.512,0,0,0-.27-.456h0a.534.534,0,0,0-.625.068l-1.874,1.7A3.235,3.235,0,0,0,54.7,34.412v3.73a.411.411,0,0,0,.405.405h2.87a.411.411,0,0,0,.405-.405v-.81a.455.455,0,0,1,.084-.253l2.751-3.494A1.559,1.559,0,0,0,61.6,32.353Z" transform="translate(-46.204 -22.521)" fill="#858585"/>
    </g>
  </g>
</svg>
