<svg xmlns="http://www.w3.org/2000/svg" width="17.839" height="15.503" viewBox="0 0 17.839 15.503">
  <g id="noun_dashboard_676468" transform="translate(-4.574 -10.57)">
    <path id="Path_11892" data-name="Path 11892" d="M19.779,13.042a9.016,9.016,0,0,1,0,12.737,1.011,1.011,0,0,1-1.26.132l-2.14-1.395a.994.994,0,0,1-.078-1.609A1.008,1.008,0,0,1,17.5,22.84l1.4.912a7,7,0,1,0-10.973,0l1.4-.912a1.011,1.011,0,0,1,1.206.068.994.994,0,0,1-.088,1.6L8.3,25.9a1.01,1.01,0,0,1-1.26-.132A9.006,9.006,0,0,1,19.779,13.042Zm-1.827,7.263a.636.636,0,1,0,.267-.411.636.636,0,0,0-.267.411ZM9.131,17.638a.636.636,0,1,0-.584.389A.636.636,0,0,0,9.131,17.638Zm-1.01,2.175a.636.636,0,0,0,.123,1.26.624.624,0,0,0,.124-.012.636.636,0,0,0,.5-.747h0A.636.636,0,0,0,8.121,19.813Zm2.011-5.31h0a.636.636,0,1,0,.706,1.058h0a.636.636,0,1,0-.706-1.058Zm6.732.877a.632.632,0,1,0-.4.272A.636.636,0,0,0,16.865,15.38Zm-2.871-.994a.636.636,0,0,0-.584-.879h0a.636.636,0,1,0,.584.879Zm4.5,3.5-3.2,2.048a1.926,1.926,0,1,1-.914-2.074l3.7-.955a.539.539,0,0,1,.426.973Zm-4.46,1.362a.681.681,0,1,0-.352.9.681.681,0,0,0,.352-.9Z" transform="translate(0 0)" fill="#f5c96c"/>
  </g>
</svg>
