<svg id="nut-icon" xmlns="http://www.w3.org/2000/svg" width="15.377" height="15.378" viewBox="0 0 15.377 15.378">
  <g id="Group_545" data-name="Group 545">
    <g id="Group_544" data-name="Group 544">
      <circle id="Ellipse_25" data-name="Ellipse 25" cx="1.325" cy="1.325" r="1.325" transform="translate(6.364 6.364)" fill="#858585"/>
      <path id="Path_291" data-name="Path 291" d="M15.067,6.376l-1.852-.347a5.7,5.7,0,0,0-.443-1.072l1.072-1.567A.4.4,0,0,0,13.8,2.9L12.476,1.58a.4.4,0,0,0-.487-.045L10.422,2.607a5.727,5.727,0,0,0-1.1-.452L8.971.313A.4.4,0,0,0,8.595,0H6.726a.4.4,0,0,0-.377.313L6,2.174a5.713,5.713,0,0,0-1.06.443L3.392,1.558A.4.4,0,0,0,2.9,1.6L1.583,2.925a.4.4,0,0,0-.045.487L2.6,4.969a5.743,5.743,0,0,0-.436,1.059L.314,6.376A.4.4,0,0,0,0,6.753V8.621A.4.4,0,0,0,.314,9l1.851.347a5.729,5.729,0,0,0,.446,1.081l-1.053,1.54a.4.4,0,0,0,.045.487l1.322,1.322a.4.4,0,0,0,.487.046l1.539-1.054A5.752,5.752,0,0,0,6,13.2l.349,1.862a.4.4,0,0,0,.377.312H8.6a.4.4,0,0,0,.377-.312l.346-1.843a5.789,5.789,0,0,0,1.093-.446l1.559,1.067a.4.4,0,0,0,.487-.046l1.321-1.321a.4.4,0,0,0,.046-.487l-1.061-1.55a5.75,5.75,0,0,0,.453-1.094L15.067,9a.4.4,0,0,0,.312-.377V6.753A.4.4,0,0,0,15.067,6.376ZM7.691,10.9A3.207,3.207,0,1,1,10.9,7.689,3.207,3.207,0,0,1,7.691,10.9Z" transform="translate(-0.002)" fill="#858585"/>
    </g>
  </g>
</svg>
